<?xml version="1.0" encoding="UTF-8"?>
<svg xmlns="http://www.w3.org/2000/svg" xmlns:xlink="http://www.w3.org/1999/xlink" width="854" height="480" viewBox="0 0 854 480">
<defs>
<g>
<g id="glyph-0-0">
<path d="M 2.121094 0 L 1.242188 0 L 1.242188 -0.105469 C 1.316406 -0.109375 1.382812 -0.121094 1.433594 -0.136719 C 1.484375 -0.152344 1.511719 -0.167969 1.511719 -0.191406 C 1.511719 -0.199219 1.507812 -0.210938 1.507812 -0.222656 C 1.503906 -0.238281 1.503906 -0.25 1.5 -0.257812 L 1.324219 -0.734375 L 0.578125 -0.734375 C 0.550781 -0.664062 0.527344 -0.601562 0.511719 -0.550781 C 0.496094 -0.5 0.480469 -0.449219 0.464844 -0.40625 C 0.453125 -0.363281 0.441406 -0.328125 0.4375 -0.304688 C 0.433594 -0.277344 0.429688 -0.253906 0.429688 -0.238281 C 0.429688 -0.199219 0.460938 -0.167969 0.523438 -0.144531 C 0.585938 -0.121094 0.65625 -0.109375 0.734375 -0.105469 L 0.734375 0 L -0.0625 0 L -0.0625 -0.105469 C -0.0351562 -0.109375 -0.00390625 -0.113281 0.0351562 -0.125 C 0.0742188 -0.132812 0.105469 -0.144531 0.132812 -0.160156 C 0.171875 -0.1875 0.203125 -0.214844 0.222656 -0.246094 C 0.246094 -0.273438 0.265625 -0.316406 0.289062 -0.367188 C 0.394531 -0.632812 0.511719 -0.929688 0.640625 -1.261719 C 0.769531 -1.59375 0.882812 -1.886719 0.984375 -2.148438 L 1.101562 -2.148438 L 1.808594 -0.320312 C 1.824219 -0.28125 1.839844 -0.25 1.859375 -0.226562 C 1.878906 -0.203125 1.90625 -0.179688 1.9375 -0.15625 C 1.960938 -0.144531 1.992188 -0.132812 2.027344 -0.121094 C 2.066406 -0.113281 2.09375 -0.105469 2.121094 -0.105469 L 2.121094 0 M 1.269531 -0.867188 L 0.949219 -1.6875 L 0.632812 -0.867188 Z "/>
</g>
<g id="glyph-0-1">
<path d="M 0.789062 0.0390625 C 0.574219 0.0390625 0.410156 -0.03125 0.289062 -0.171875 C 0.167969 -0.3125 0.109375 -0.503906 0.109375 -0.742188 C 0.109375 -0.84375 0.125 -0.941406 0.15625 -1.03125 C 0.1875 -1.121094 0.234375 -1.203125 0.296875 -1.277344 C 0.355469 -1.347656 0.429688 -1.40625 0.519531 -1.449219 C 0.605469 -1.492188 0.703125 -1.511719 0.808594 -1.511719 C 0.953125 -1.511719 1.070312 -1.476562 1.160156 -1.410156 C 1.25 -1.339844 1.296875 -1.246094 1.296875 -1.125 C 1.296875 -1.078125 1.285156 -1.03125 1.257812 -0.996094 C 1.234375 -0.957031 1.195312 -0.9375 1.140625 -0.9375 C 1.082031 -0.9375 1.039062 -0.953125 1.003906 -0.980469 C 0.972656 -1.011719 0.957031 -1.042969 0.957031 -1.082031 C 0.957031 -1.125 0.960938 -1.171875 0.972656 -1.21875 C 0.988281 -1.265625 0.992188 -1.300781 0.996094 -1.324219 C 0.976562 -1.351562 0.949219 -1.375 0.914062 -1.382812 C 0.878906 -1.394531 0.84375 -1.398438 0.800781 -1.398438 C 0.753906 -1.398438 0.707031 -1.390625 0.664062 -1.367188 C 0.621094 -1.347656 0.582031 -1.3125 0.539062 -1.257812 C 0.503906 -1.207031 0.472656 -1.140625 0.449219 -1.054688 C 0.425781 -0.96875 0.417969 -0.871094 0.417969 -0.753906 C 0.417969 -0.566406 0.457031 -0.417969 0.539062 -0.300781 C 0.621094 -0.183594 0.730469 -0.125 0.863281 -0.125 C 0.957031 -0.125 1.039062 -0.148438 1.105469 -0.195312 C 1.167969 -0.242188 1.230469 -0.3125 1.285156 -0.40625 L 1.378906 -0.34375 C 1.316406 -0.226562 1.226562 -0.132812 1.121094 -0.0625 C 1.011719 0.00390625 0.902344 0.0390625 0.789062 0.0390625 Z "/>
</g>
<g id="glyph-0-2">
<path d="M 1.683594 -0.0273438 L 1.203125 0.0078125 L 1.183594 -0.015625 L 1.183594 -0.203125 L 1.171875 -0.203125 C 1.148438 -0.175781 1.121094 -0.148438 1.09375 -0.121094 C 1.0625 -0.09375 1.027344 -0.0664062 0.988281 -0.0429688 C 0.945312 -0.0195312 0.902344 0.00390625 0.859375 0.015625 C 0.816406 0.03125 0.757812 0.0390625 0.683594 0.0390625 C 0.550781 0.0390625 0.453125 -0.00390625 0.386719 -0.0898438 C 0.316406 -0.175781 0.285156 -0.296875 0.285156 -0.460938 L 0.285156 -1.164062 C 0.285156 -1.199219 0.277344 -1.230469 0.261719 -1.253906 C 0.25 -1.277344 0.230469 -1.300781 0.203125 -1.316406 C 0.1875 -1.328125 0.164062 -1.339844 0.136719 -1.34375 C 0.109375 -1.347656 0.0820312 -1.351562 0.0507812 -1.355469 L 0.0507812 -1.453125 L 0.542969 -1.488281 L 0.5625 -1.46875 L 0.5625 -0.445312 C 0.5625 -0.339844 0.589844 -0.257812 0.636719 -0.207031 C 0.683594 -0.152344 0.742188 -0.125 0.808594 -0.125 C 0.863281 -0.125 0.910156 -0.132812 0.953125 -0.152344 C 0.996094 -0.167969 1.03125 -0.1875 1.0625 -0.210938 C 1.085938 -0.230469 1.113281 -0.253906 1.132812 -0.277344 C 1.152344 -0.300781 1.167969 -0.320312 1.179688 -0.339844 L 1.179688 -1.175781 C 1.179688 -1.207031 1.171875 -1.238281 1.15625 -1.261719 C 1.144531 -1.285156 1.125 -1.308594 1.101562 -1.328125 C 1.082031 -1.339844 1.054688 -1.347656 1.019531 -1.347656 C 0.984375 -1.351562 0.945312 -1.351562 0.902344 -1.355469 L 0.902344 -1.453125 L 1.4375 -1.488281 L 1.460938 -1.46875 L 1.460938 -0.300781 C 1.460938 -0.265625 1.464844 -0.238281 1.480469 -0.214844 C 1.496094 -0.191406 1.511719 -0.171875 1.539062 -0.152344 C 1.554688 -0.144531 1.578125 -0.136719 1.601562 -0.132812 C 1.628906 -0.128906 1.65625 -0.125 1.683594 -0.125 Z "/>
</g>
<g id="glyph-0-3">
<path d="M 1.234375 -1.28125 C 1.234375 -1.230469 1.222656 -1.1875 1.195312 -1.148438 C 1.171875 -1.109375 1.132812 -1.085938 1.082031 -1.085938 C 1.027344 -1.085938 0.984375 -1.101562 0.953125 -1.132812 C 0.925781 -1.160156 0.910156 -1.191406 0.910156 -1.226562 C 0.910156 -1.25 0.910156 -1.269531 0.914062 -1.285156 C 0.917969 -1.304688 0.921875 -1.320312 0.925781 -1.339844 C 0.878906 -1.339844 0.824219 -1.320312 0.761719 -1.285156 C 0.699219 -1.246094 0.644531 -1.191406 0.601562 -1.121094 L 0.601562 -0.265625 C 0.601562 -0.230469 0.609375 -0.203125 0.621094 -0.179688 C 0.636719 -0.160156 0.65625 -0.140625 0.683594 -0.132812 C 0.710938 -0.121094 0.742188 -0.113281 0.78125 -0.109375 C 0.820312 -0.105469 0.855469 -0.101562 0.882812 -0.0976562 L 0.882812 0 L 0.109375 0 L 0.109375 -0.0976562 C 0.128906 -0.101562 0.152344 -0.101562 0.179688 -0.105469 C 0.203125 -0.105469 0.222656 -0.109375 0.242188 -0.117188 C 0.269531 -0.125 0.289062 -0.140625 0.304688 -0.164062 C 0.316406 -0.1875 0.324219 -0.214844 0.324219 -0.25 L 0.324219 -1.15625 C 0.324219 -1.1875 0.316406 -1.21875 0.300781 -1.25 C 0.289062 -1.277344 0.269531 -1.304688 0.242188 -1.320312 C 0.222656 -1.332031 0.199219 -1.339844 0.175781 -1.347656 C 0.148438 -1.351562 0.121094 -1.355469 0.0898438 -1.359375 L 0.0898438 -1.457031 L 0.582031 -1.488281 L 0.601562 -1.46875 L 0.601562 -1.261719 L 0.609375 -1.261719 C 0.671875 -1.339844 0.738281 -1.402344 0.816406 -1.445312 C 0.890625 -1.484375 0.960938 -1.507812 1.023438 -1.507812 C 1.085938 -1.507812 1.136719 -1.488281 1.175781 -1.445312 C 1.214844 -1.40625 1.234375 -1.351562 1.234375 -1.28125 Z "/>
</g>
<g id="glyph-0-4">
<path d="M 1.5 -0.0273438 C 1.453125 -0.0117188 1.414062 0.00390625 1.378906 0.015625 C 1.34375 0.0234375 1.300781 0.03125 1.257812 0.03125 C 1.179688 0.03125 1.117188 0.0117188 1.070312 -0.0234375 C 1.027344 -0.0625 0.996094 -0.113281 0.984375 -0.183594 L 0.972656 -0.183594 C 0.910156 -0.113281 0.839844 -0.0585938 0.765625 -0.0195312 C 0.691406 0.0195312 0.601562 0.0390625 0.5 0.0390625 C 0.386719 0.0390625 0.296875 0.00390625 0.226562 -0.0625 C 0.15625 -0.132812 0.121094 -0.21875 0.121094 -0.328125 C 0.121094 -0.386719 0.128906 -0.4375 0.144531 -0.480469 C 0.160156 -0.527344 0.183594 -0.566406 0.214844 -0.601562 C 0.238281 -0.632812 0.273438 -0.660156 0.3125 -0.683594 C 0.355469 -0.707031 0.390625 -0.726562 0.429688 -0.738281 C 0.472656 -0.753906 0.5625 -0.785156 0.699219 -0.832031 C 0.835938 -0.878906 0.929688 -0.914062 0.976562 -0.941406 L 0.976562 -1.085938 C 0.976562 -1.101562 0.976562 -1.125 0.96875 -1.164062 C 0.964844 -1.199219 0.953125 -1.234375 0.933594 -1.265625 C 0.914062 -1.304688 0.886719 -1.335938 0.851562 -1.363281 C 0.8125 -1.390625 0.761719 -1.402344 0.695312 -1.402344 C 0.648438 -1.402344 0.605469 -1.394531 0.566406 -1.382812 C 0.527344 -1.367188 0.5 -1.347656 0.484375 -1.332031 C 0.484375 -1.3125 0.488281 -1.285156 0.5 -1.246094 C 0.507812 -1.207031 0.511719 -1.167969 0.511719 -1.136719 C 0.511719 -1.101562 0.496094 -1.070312 0.464844 -1.042969 C 0.433594 -1.011719 0.390625 -1 0.335938 -1 C 0.285156 -1 0.25 -1.015625 0.226562 -1.050781 C 0.203125 -1.085938 0.191406 -1.125 0.191406 -1.167969 C 0.191406 -1.214844 0.207031 -1.257812 0.238281 -1.300781 C 0.273438 -1.34375 0.3125 -1.378906 0.367188 -1.414062 C 0.410156 -1.441406 0.464844 -1.464844 0.527344 -1.484375 C 0.59375 -1.503906 0.652344 -1.511719 0.714844 -1.511719 C 0.796875 -1.511719 0.871094 -1.507812 0.933594 -1.496094 C 0.996094 -1.484375 1.050781 -1.460938 1.101562 -1.421875 C 1.152344 -1.386719 1.191406 -1.335938 1.21875 -1.273438 C 1.246094 -1.207031 1.257812 -1.128906 1.257812 -1.027344 C 1.257812 -0.886719 1.257812 -0.761719 1.253906 -0.648438 C 1.25 -0.539062 1.25 -0.417969 1.25 -0.289062 C 1.25 -0.25 1.253906 -0.21875 1.269531 -0.195312 C 1.28125 -0.175781 1.304688 -0.15625 1.332031 -0.140625 C 1.347656 -0.128906 1.371094 -0.125 1.402344 -0.125 C 1.433594 -0.121094 1.46875 -0.121094 1.5 -0.121094 L 1.5 -0.0273438 M 0.980469 -0.816406 C 0.894531 -0.789062 0.820312 -0.765625 0.757812 -0.742188 C 0.695312 -0.71875 0.636719 -0.6875 0.582031 -0.652344 C 0.53125 -0.617188 0.492188 -0.578125 0.460938 -0.53125 C 0.433594 -0.484375 0.417969 -0.429688 0.417969 -0.367188 C 0.417969 -0.285156 0.441406 -0.222656 0.484375 -0.183594 C 0.527344 -0.144531 0.582031 -0.125 0.648438 -0.125 C 0.71875 -0.125 0.78125 -0.140625 0.835938 -0.175781 C 0.890625 -0.210938 0.933594 -0.253906 0.972656 -0.296875 Z "/>
</g>
<g id="glyph-0-5">
<path d="M -0.00390625 0.480469 C -0.00390625 0.429688 0.0078125 0.390625 0.0351562 0.359375 C 0.0625 0.328125 0.0976562 0.3125 0.140625 0.3125 C 0.171875 0.3125 0.199219 0.316406 0.222656 0.328125 C 0.242188 0.339844 0.265625 0.355469 0.28125 0.375 C 0.296875 0.390625 0.3125 0.410156 0.328125 0.4375 C 0.347656 0.460938 0.359375 0.484375 0.371094 0.5 C 0.417969 0.472656 0.480469 0.402344 0.546875 0.289062 C 0.617188 0.175781 0.667969 0.078125 0.699219 -0.0078125 C 0.605469 -0.242188 0.519531 -0.453125 0.441406 -0.640625 C 0.363281 -0.828125 0.285156 -1.019531 0.203125 -1.21875 C 0.183594 -1.261719 0.152344 -1.300781 0.105469 -1.324219 C 0.0625 -1.351562 0.015625 -1.367188 -0.0273438 -1.371094 L -0.0273438 -1.472656 L 0.644531 -1.472656 L 0.644531 -1.367188 C 0.613281 -1.367188 0.578125 -1.359375 0.535156 -1.347656 C 0.496094 -1.335938 0.472656 -1.324219 0.472656 -1.308594 C 0.472656 -1.304688 0.476562 -1.292969 0.480469 -1.277344 C 0.484375 -1.265625 0.488281 -1.25 0.496094 -1.234375 C 0.535156 -1.136719 0.589844 -0.996094 0.667969 -0.808594 C 0.746094 -0.625 0.804688 -0.476562 0.847656 -0.363281 C 0.894531 -0.472656 0.941406 -0.582031 0.988281 -0.695312 C 1.035156 -0.808594 1.089844 -0.945312 1.148438 -1.097656 C 1.15625 -1.117188 1.167969 -1.144531 1.179688 -1.175781 C 1.191406 -1.210938 1.199219 -1.238281 1.199219 -1.261719 C 1.199219 -1.289062 1.175781 -1.3125 1.132812 -1.335938 C 1.085938 -1.355469 1.042969 -1.371094 1.003906 -1.375 L 1.003906 -1.472656 L 1.550781 -1.472656 L 1.550781 -1.378906 C 1.519531 -1.375 1.480469 -1.355469 1.429688 -1.328125 C 1.382812 -1.296875 1.347656 -1.257812 1.320312 -1.203125 C 1.203125 -0.929688 1.097656 -0.679688 1.007812 -0.453125 C 0.914062 -0.226562 0.84375 -0.0585938 0.796875 0.046875 C 0.734375 0.183594 0.679688 0.292969 0.628906 0.371094 C 0.578125 0.449219 0.53125 0.511719 0.484375 0.554688 C 0.4375 0.597656 0.398438 0.625 0.359375 0.640625 C 0.324219 0.65625 0.285156 0.664062 0.246094 0.664062 C 0.167969 0.664062 0.105469 0.644531 0.0625 0.605469 C 0.0195312 0.570312 -0.00390625 0.527344 -0.00390625 0.480469 Z "/>
</g>
<g id="glyph-0-6">
</g>
<g id="glyph-0-7">
<path d="M 1.046875 0.488281 C 0.773438 0.457031 0.5625 0.320312 0.40625 0.078125 C 0.25 -0.160156 0.175781 -0.484375 0.175781 -0.890625 C 0.175781 -1.300781 0.25 -1.628906 0.40625 -1.871094 C 0.5625 -2.113281 0.773438 -2.25 1.046875 -2.285156 L 1.046875 -2.164062 C 0.855469 -2.128906 0.710938 -2.003906 0.609375 -1.796875 C 0.511719 -1.585938 0.460938 -1.285156 0.460938 -0.886719 C 0.460938 -0.507812 0.511719 -0.210938 0.605469 -0.00390625 C 0.703125 0.207031 0.851562 0.332031 1.046875 0.367188 Z "/>
</g>
<g id="glyph-0-8">
<path d="M 1.175781 -1.617188 C 1.175781 -1.441406 1.128906 -1.304688 1.035156 -1.207031 C 0.941406 -1.113281 0.816406 -1.0625 0.667969 -1.0625 C 0.519531 -1.0625 0.398438 -1.113281 0.304688 -1.207031 C 0.210938 -1.304688 0.164062 -1.441406 0.164062 -1.617188 C 0.164062 -1.78125 0.207031 -1.914062 0.300781 -2.015625 C 0.394531 -2.117188 0.515625 -2.167969 0.671875 -2.167969 C 0.820312 -2.167969 0.945312 -2.117188 1.035156 -2.015625 C 1.128906 -1.914062 1.175781 -1.78125 1.175781 -1.617188 M 0.921875 -1.617188 C 0.921875 -1.746094 0.902344 -1.851562 0.859375 -1.933594 C 0.816406 -2.019531 0.753906 -2.058594 0.671875 -2.058594 C 0.585938 -2.058594 0.519531 -2.019531 0.476562 -1.933594 C 0.4375 -1.851562 0.414062 -1.746094 0.414062 -1.617188 C 0.414062 -1.484375 0.4375 -1.375 0.480469 -1.292969 C 0.523438 -1.214844 0.585938 -1.171875 0.667969 -1.171875 C 0.753906 -1.171875 0.816406 -1.214844 0.859375 -1.292969 C 0.902344 -1.375 0.921875 -1.484375 0.921875 -1.617188 M 2.335938 -0.503906 C 2.335938 -0.328125 2.289062 -0.195312 2.195312 -0.0976562 C 2.097656 0 1.976562 0.046875 1.828125 0.046875 C 1.679688 0.046875 1.558594 0 1.464844 -0.0976562 C 1.367188 -0.195312 1.320312 -0.328125 1.320312 -0.503906 C 1.320312 -0.667969 1.367188 -0.804688 1.460938 -0.902344 C 1.550781 -1.003906 1.675781 -1.054688 1.828125 -1.054688 C 1.980469 -1.054688 2.105469 -1.003906 2.195312 -0.902344 C 2.289062 -0.804688 2.335938 -0.667969 2.335938 -0.503906 M 2.082031 -0.503906 C 2.082031 -0.632812 2.0625 -0.742188 2.019531 -0.824219 C 1.976562 -0.90625 1.914062 -0.949219 1.828125 -0.949219 C 1.742188 -0.949219 1.679688 -0.90625 1.636719 -0.824219 C 1.59375 -0.742188 1.574219 -0.632812 1.574219 -0.503906 C 1.574219 -0.371094 1.59375 -0.265625 1.636719 -0.183594 C 1.679688 -0.101562 1.746094 -0.0625 1.828125 -0.0625 C 1.910156 -0.0625 1.976562 -0.101562 2.019531 -0.183594 C 2.0625 -0.265625 2.082031 -0.371094 2.082031 -0.503906 M 2.238281 -2.125 L 0.476562 0 L 0.273438 0 L 2.027344 -2.125 Z "/>
</g>
<g id="glyph-0-9">
<path d="M 0.972656 -0.890625 C 0.972656 -0.484375 0.894531 -0.160156 0.738281 0.078125 C 0.585938 0.320312 0.371094 0.457031 0.101562 0.488281 L 0.101562 0.367188 C 0.296875 0.332031 0.441406 0.207031 0.539062 -0.00390625 C 0.636719 -0.210938 0.683594 -0.507812 0.683594 -0.886719 C 0.683594 -1.285156 0.636719 -1.585938 0.535156 -1.796875 C 0.4375 -2.003906 0.289062 -2.128906 0.101562 -2.164062 L 0.101562 -2.285156 C 0.371094 -2.25 0.585938 -2.113281 0.738281 -1.871094 C 0.894531 -1.628906 0.972656 -1.300781 0.972656 -0.890625 Z "/>
</g>
</g>
</defs>
<g fill="rgb(100%, 100%, 100%)" fill-opacity="1">
<use xlink:href="#glyph-0-0" x="30" y="22.801758"/>
<use xlink:href="#glyph-0-1" x="32" y="22.801758"/>
<use xlink:href="#glyph-0-1" x="33" y="22.801758"/>
<use xlink:href="#glyph-0-2" x="34" y="22.801758"/>
<use xlink:href="#glyph-0-3" x="36" y="22.801758"/>
<use xlink:href="#glyph-0-4" x="37" y="22.801758"/>
<use xlink:href="#glyph-0-1" x="39" y="22.801758"/>
<use xlink:href="#glyph-0-5" x="40" y="22.801758"/>
<use xlink:href="#glyph-0-6" x="42" y="22.801758"/>
<use xlink:href="#glyph-0-7" x="43" y="22.801758"/>
<use xlink:href="#glyph-0-8" x="44" y="22.801758"/>
<use xlink:href="#glyph-0-9" x="46" y="22.801758"/>
</g>
</svg>
